PathFileType	4	(X/Y/Z)	/Users/itak/Documents/Research/Walk-IL/dataset/trc/00131_00007.trc
DataRate	CameraRate	NumFrames	NumMarkers	Units	OrigDataRate	OrigDataStartFrame	OrigNumFrames
100.000000	100.000000	4	53	mm	100.000000	267	712
Frame#	Time	RPSI			LPSI			L3			STRN			T10			C7			CLAV			RBAK			LBAK			LSHO			LUPA			LAEL			LAOL			LWTS			LWPS			LFRA			LIFD			LHPS			LHTS			RSHO			RUPA			RAEL			RAOL			RWTS			RWPS			RFRA			RIFD			RHTS			RHPS			RBHD			LFHD			RFHD			LBHD			LHIP			RHIP			RASI			LASI			LKNE			LTHI			LANK			LTIP			LTOE			LMT1			LMT5			LHEE			RKNE			RTHI			RANK			RTIP			RTOE			RMT1			RMT5			RHEE			
		X1	Y1	Z1	X2	Y2	Z2	X3	Y3	Z3	X4	Y4	Z4	X5	Y5	Z5	X6	Y6	Z6	X7	Y7	Z7	X8	Y8	Z8	X9	Y9	Z9	X10	Y10	Z10	X11	Y11	Z11	X12	Y12	Z12	X13	Y13	Z13	X14	Y14	Z14	X15	Y15	Z15	X16	Y16	Z16	X17	Y17	Z17	X18	Y18	Z18	X19	Y19	Z19	X20	Y20	Z20	X21	Y21	Z21	X22	Y22	Z22	X23	Y23	Z23	X24	Y24	Z24	X25	Y25	Z25	X26	Y26	Z26	X27	Y27	Z27	X28	Y28	Z28	X29	Y29	Z29	X30	Y30	Z30	X31	Y31	Z31	X32	Y32	Z32	X33	Y33	Z33	X34	Y34	Z34	X35	Y35	Z35	X36	Y36	Z36	X37	Y37	Z37	X38	Y38	Z38	X39	Y39	Z39	X40	Y40	Z40	X41	Y41	Z41	X42	Y42	Z42	X43	Y43	Z43	X44	Y44	Z44	X45	Y45	Z45	X46	Y46	Z46	X47	Y47	Z47	X48	Y48	Z48	X49	Y49	Z49	X50	Y50	Z50	X51	Y51	Z51	X52	Y52	Z52	X53	Y53	Z53	

268	2.67	-570.2127685546875	1102.530883789062	191.3497467041016	-702.94677734375	1104.729858398438	161.8066558837891	-640.4685668945312	1141.2353515625	183.3726348876953	-579.0731201171875	1339.446533203125	-30.90557479858398	-648.493408203125	1294.345336914062	216.5287017822266	-639.8521728515625	1587.130493164062	175.3439636230469	-583.864501953125	1474.574829101562	3.280763864517212	-581.7463989257812	1397.859741210938	251.136962890625	-739.6148681640625	1573.502563476562	151.2395324707031	-779.6453857421875	1561.84814453125	47.30912399291992	-858.3899536132812	1433.966796875	47.8138427734375	-897.3165893554688	1220.426147460938	27.05976676940918	-852.7843627929688	1198.233764648438	101.3211975097656	-853.5615234375	983.058349609375	-107.3251419067383	-891.0276489257812	943.3131103515625	-36.62303924560547	-906.0449829101562	1108.382202148438	-5.06764030456543	-827.6671142578125	796.4349365234375	-152.7235565185547	-887.2567138671875	874.6874389648438	-79.64907073974609	-863.1644287109375	898.3653564453125	-141.0922698974609	-451.8126220703125	1555.072631835938	176.0102081298828	-403.0090942382812	1479.365600585938	214.9544067382812	-414.335693359375	1187.047485351562	247.2135620117188	-504.3509826660156	1192.687133789062	215.2485046386719	-379.3884582519531	939.85302734375	115.0935897827148	-384.7877807617188	924.34912109375	196.5172882080078	-395.3666381835938	1112.03125	233.9551086425781	-393.7424926757812	746.1610717773438	87.00659942626953	-366.9996643066406	830.6449584960938	92.29505920410156	-370.6366882324219	823.5330200195312	166.1969451904297	-561.7252197265625	1747.225830078125	169.7212982177734	-556.9054565429688	1823.351318359375	-39.71581649780273	-455.8498840332031	1807.13427734375	40.39325714111328	-671.388427734375	1767.226684570312	95.59529876708984	-787.70947265625	1019.670532226562	44.73640060424805	-430.4234008789062	1005.245239257812	90.09730529785156	-463.0936279296875	1080.418212890625	2.592191457748413	-722.2604370117188	1085.610595703125	-51.36653518676758	-778.9013671875	509.5751037597656	-43.19631576538086	-797.1788940429688	662.713623046875	-9.73753547668457	-899.9954223632812	217.8023223876953	399.8356018066406	-868.5304565429688	383.1561584472656	185.1837615966797	-817.6170654296875	32.21710968017578	299.5749816894531	-792.3480834960938	101.3170852661133	336.3379821777344	-903.805908203125	101.3810806274414	355.9026794433594	-848.5499267578125	286.498779296875	431.0830993652344	-513.1257934570312	523.9070434570312	-4.253489971160889	-446.6031188964844	795.01708984375	37.16544723510742	-639.4573974609375	26.28283500671387	-16.97866439819336	-528.10888671875	387.9239196777344	-2.767001867294312	-555.4393920898438	61.72908401489258	-233.3827056884766	-622.021728515625	44.93521881103516	-209.6017913818359	-547.5440063476562	45.49124526977539	-114.2100296020508	-710.6644287109375	27.13432693481445	1.513397097587585	
269	2.68	-569.8297119140625	1103.13623046875	184.1934509277344	-702.205322265625	1105.094604492188	152.4003295898438	-639.9042358398438	1141.558837890625	175.0222015380859	-574.90478515625	1340.28173828125	-38.30129241943359	-647.5731201171875	1294.830932617188	207.8681640625	-638.1312866210938	1587.853881835938	167.1809539794922	-580.436767578125	1475.410888671875	-4.312682151794434	-580.5723876953125	1398.66943359375	243.6399688720703	-737.6669921875	1573.955322265625	142.0668640136719	-776.9349975585938	1562.0771484375	37.81639099121094	-855.200439453125	1433.855834960938	37.79369735717773	-892.9296875	1219.944091796875	17.05814743041992	-849.2234497070312	1198.572631835938	92.00614929199219	-847.9547729492188	979.3912963867188	-111.8070449829102	-886.443603515625	941.4929809570312	-40.69775009155273	-901.3458862304688	1107.314819335938	-13.21192359924316	-821.8314208984375	791.4644775390625	-151.8957061767578	-882.2684936523438	871.7847290039062	-81.88715362548828	-857.2401733398438	893.74072265625	-143.5339660644531	-450.1460571289062	1556.027587890625	169.6692962646484	-401.3878784179688	1480.370483398438	208.8573760986328	-411.2698364257812	1187.6640625	239.4629211425781	-501.3087768554688	1193.085205078125	207.4590911865234	-374.4808349609375	942.406982421875	104.3113098144531	-379.6648864746094	925.7610473632812	185.4938507080078	-391.7728881835938	1112.833862304688	225.3752593994141	-387.1828918457031	749.0193481445312	73.54791259765625	-361.1810607910156	833.6636352539062	80.00180053710938	-364.6711120605469	825.4976196289062	153.8018341064453	-559.8673095703125	1748.127075195312	161.7978210449219	-552.8658447265625	1823.716186523438	-47.92099761962891	-452.6982116699219	1807.628051757812	33.36835479736328	-668.7327270507812	1767.944702148438	86.49431610107422	-784.9830932617188	1020.763549804688	33.75062561035156	-428.1324768066406	1005.851013183594	85.50766754150391	-459.0216369628906	1081.188354492188	-2.664403438568115	-717.20263671875	1086.685180664062	-61.0751838684082	-770.54248046875	511.328857421875	-64.61326599121094	-790.933349609375	663.90869140625	-28.5490779876709	-901.6299438476562	220.2691497802734	375.5091857910156	-864.9205322265625	385.0968322753906	161.8379211425781	-817.998291015625	35.01773834228516	274.65283203125	-793.1065063476562	104.0071105957031	312.8515319824219	-905.1788940429688	104.7936325073242	329.4810485839844	-850.6109008789062	287.9642639160156	409.3027648925781	-512.0155639648438	523.720458984375	-6.031383991241455	-444.3883666992188	795.547607421875	33.07685852050781	-639.4864501953125	26.27630615234375	-16.97348022460938	-527.3386840820312	387.8227233886719	-4.029921531677246	-555.51171875	61.49496841430664	-233.3780059814453	-622.045654296875	44.71937942504883	-209.5612182617188	-547.5120239257812	45.44893264770508	-114.1762466430664	-710.6865844726562	27.12093544006348	1.577515721321106	
270	2.69	-569.45166015625	1103.70703125	177.1597595214844	-701.3590698242188	1105.547973632812	142.9809112548828	-639.2921142578125	1141.95166015625	166.6986846923828	-570.620849609375	1341.119018554688	-45.5488166809082	-646.7208862304688	1295.320922851562	199.3055419921875	-636.4382934570312	1588.56005859375	159.1094818115234	-576.9482421875	1476.246948242188	-11.77156639099121	-579.486572265625	1399.456665039062	236.2357330322266	-735.7247924804688	1574.413330078125	132.9377899169922	-774.158203125	1562.347290039062	28.35689926147461	-852.0010375976562	1433.809814453125	27.77144432067871	-888.51416015625	1219.528564453125	7.198732852935791	-845.6126098632812	1198.990600585938	82.78304290771484	-842.449462890625	975.8755493164062	-116.1066207885742	-881.9757080078125	939.8886108398438	-44.62402725219727	-896.651611328125	1106.359497070312	-21.22539138793945	-816.4057006835938	786.7596435546875	-150.7857971191406	-877.5035400390625	869.1441040039062	-83.9324951171875	-851.5188598632812	889.3278198242188	-145.7385864257812	-448.5379638671875	1556.98046875	163.5161743164062	-399.8301391601562	1481.376708984375	202.9579467773438	-408.221923828125	1188.28857421875	231.8488159179688	-498.2578735351562	1193.477294921875	199.7295227050781	-369.4259338378906	945.04736328125	93.64180755615234	-374.4423522949219	927.2716674804688	174.5628204345703	-388.1654357910156	1113.66845703125	216.9248199462891	-380.5008239746094	752.0012817382812	60.2572135925293	-355.2006530761719	836.7916259765625	67.85429382324219	-358.5753479003906	827.5858154296875	141.5366668701172	-557.998291015625	1749.076293945312	153.9382171630859	-548.8532104492188	1823.96728515625	-56.0278205871582	-449.5432739257812	1808.063598632812	26.37522125244141	-666.066650390625	1768.690673828125	77.46860504150391	-782.13525390625	1022.03857421875	22.8140811920166	-425.8682250976562	1006.393493652344	81.10738372802734	-454.8928527832031	1081.914428710938	-7.66445255279541	-711.962158203125	1087.776977539062	-70.71089172363281	-761.8291625976562	513.4437255859375	-85.51073455810547	-784.4677734375	665.3851318359375	-47.02439117431641	-902.852294921875	221.5292205810547	350.276611328125	-860.8624877929688	386.7943725585938	138.5495147705078	-818.2232055664062	37.55523681640625	247.4453887939453	-793.6429443359375	105.7383575439453	287.6763305664062	-906.2649536132812	107.4326782226562	301.2427673339844	-852.2181396484375	287.8548889160156	387.1008605957031	-510.9496459960938	523.5257568359375	-7.661367893218994	-442.0612487792969	796.1182250976562	29.10527610778809	-639.5308227539062	26.27406692504883	-16.96371078491211	-526.6293334960938	387.7198181152344	-5.126106739044189	-555.5858764648438	61.29630661010742	-233.3458862304688	-622.066162109375	44.5277214050293	-209.5112609863281	-547.4791259765625	45.4031982421875	-114.1270751953125	-710.730712890625	27.10507392883301	1.635245323181152	
271	2.7	-569.0626220703125	1104.224609375	170.2280578613281	-700.379638671875	1106.060546875	133.5835876464844	-638.6022338867188	1142.406860351562	158.4307861328125	-566.2286987304688	1341.9423828125	-52.6618537902832	-645.9196166992188	1295.824951171875	190.8482818603516	-634.7692260742188	1589.254028320312	151.0973663330078	-573.3799438476562	1477.069091796875	-19.11075592041016	-578.488525390625	1400.223388671875	228.9110260009766	-733.7775268554688	1574.887329101562	123.806755065918	-771.287841796875	1562.6640625	18.88357353210449	-848.77685546875	1433.839233398438	17.70808029174805	-884.0866088867188	1219.188842773438	-2.494046211242676	-841.9520263671875	1199.5048828125	73.67992401123047	-837.054443359375	972.5521850585938	-120.2391815185547	-877.607666015625	938.5151977539062	-48.42344665527344	-891.9733276367188	1105.52392578125	-29.0836124420166	-811.3521118164062	782.3800048828125	-149.4768524169922	-872.9290161132812	866.7848510742188	-85.82395935058594	-845.9947509765625	885.1748046875	-147.7429962158203	-446.9817199707031	1557.929321289062	157.5311279296875	-398.3375854492188	1482.378784179688	197.2437133789062	-405.2146911621094	1188.919189453125	224.3878173828125	-495.2191162109375	1193.867309570312	192.0672302246094	-364.2252807617188	947.7730102539062	83.12732696533203	-369.1641235351562	928.8698120117188	163.7671661376953	-384.5739440917969	1114.533447265625	208.631103515625	-373.6703186035156	755.1204223632812	47.12949371337891	-349.0409851074219	840.0379638671875	55.88844680786133	-352.3848876953125	829.7894287109375	129.4334869384766	-556.1260986328125	1750.070922851562	146.1401672363281	-544.8643188476562	1824.1162109375	-64.03236389160156	-446.3840942382812	1808.449340820312	19.42448043823242	-663.39111328125	1769.466430664062	68.51724243164062	-779.0792236328125	1023.391174316406	11.86485576629639	-423.6126708984375	1006.880004882812	76.85243988037109	-450.7278747558594	1082.578125	-12.43056297302246	-706.5654296875	1088.86962890625	-80.26436614990234	-752.7738647460938	515.896240234375	-105.8490447998047	-777.7622680664062	667.1194458007812	-65.11122894287109	-903.6339721679688	221.6569061279297	324.2276000976562	-856.4038696289062	388.189453125	115.3109588623047	-818.2888793945312	39.65797805786133	218.2962646484375	-793.9227905273438	106.4857559204102	260.9989624023438	-907.0142211914062	109.3327102661133	271.5067138671875	-853.3565063476562	286.2593078613281	364.4063415527344	-509.9360656738281	523.3191528320312	-9.169248580932617	-439.7368774414062	796.6168823242188	25.3453369140625	-639.5946044921875	26.28114318847656	-16.95615768432617	-525.9869995117188	387.6140441894531	-6.075727462768555	-555.6524658203125	61.10275650024414	-233.2975006103516	-622.0741577148438	44.34183883666992	-209.4592895507812	-547.4451904296875	45.34513854980469	-114.0665740966797	-710.802734375	27.09456443786621	1.677978754043579	
